<?xml version="1.0" standalone="no"?>
<!DOCTYPE svg PUBLIC "-//W3C//DTD SVG 1.1//EN" "http://www.w3.org/Graphics/SVG/1.1/DTD/svg11.dtd" >
<!--
2013-9-30: Created.
-->
<svg>
<metadata>
Created by iconfont
</metadata>
<defs>

<font id="iconfont" horiz-adv-x="1024" >
  <font-face
    font-family="iconfont"
    font-weight="500"
    font-stretch="normal"
    units-per-em="1024"
    ascent="896"
    descent="-128"
  />
    <missing-glyph />
    
    <glyph glyph-name="wakuang" unicode="&#59125;" d="M925.696 519.168l-605.005824-1.951744-61.418496 204.729344H136.434688c-2.038784-1.529856-20.472832-15.86688-20.472832-40.945664 0-2.548736 0.4096-25.899008 20.472832-40.945664h81.891328L340.992 147.456l102.339584-0.217088C464.30208 212.13184 525.202432 259.072 597.074944 259.072c72.114176 0 133.183488-47.254528 153.954304-112.4864L823.296 146.432c48.681984 149.2224 82.865152 259.5072 91.108352 288.892928C921.399296 460.25728 922.624 484.352 922.624 484.352a541.703168 541.703168 0 0 1 3.072 34.816zM597.074944 97.521664m-112.601088 0a112.601088 112.601088 0 1 1 225.202176 0 112.601088 112.601088 0 1 1-225.202176 0ZM914.404352 558.16192L771.094528 721.9456c-0.44544 0.699392-7.432192 11.254784-20.502528 11.2384-13.032448-0.01536-19.990528-10.527744-20.443136-11.2384l-40.945664-61.418496C684.903424 652.591104 676.502528 647.7824 667.648 648.192c-12.809216 0.592896-19.08224 11.761664-19.391488 12.33408l-102.36416 122.836992c-1.195008 1.618944-6.703104 8.717312-16.484352 10.235904-9.11872 1.416192-18.479104-2.555904-24.461312-10.235904C489.536512 767.45216 415.106048 690.203648 374.784 633.856c-8.37632-11.706368-20.893696-30.353408-15.36-49.152 4.133888-14.041088 16.638976-22.39488 24.576-26.624l530.404352 0.08192z"  horiz-adv-x="1024" />

    
    <glyph glyph-name="shebei" unicode="&#59003;" d="M764.416 573.952v-283.648c70.656 8.704 125.44 69.12 125.44 141.824s-54.784 133.12-125.44 141.824zM667.648 103.936H309.76c-7.168 0-12.8 5.632-12.8 12.8v112.128c0 7.168 5.632 12.8 12.8 12.8h357.888c7.168 0 12.8-5.632 12.8-12.8v-112.128c0-7.168-5.632-12.8-12.8-12.8z m-307.2 25.6h256v86.528h-256v-86.528zM759.296 20.992H218.112c-26.112 0-47.104 20.992-47.104 47.104s20.992 47.104 47.104 47.104h540.672c26.112 0 47.104-20.992 47.104-47.104 0.512-26.112-20.992-47.104-46.592-47.104zM759.296 7.68H218.112c-33.28 0-59.904 27.136-59.904 59.904 0 33.28 27.136 59.904 59.904 59.904h540.672c33.28 0 59.904-27.136 59.904-59.904 0.512-32.768-26.624-59.904-59.392-59.904zM218.112 101.888a34.304 34.304 0 0 1 0-68.608h540.672a34.304 34.304 0 0 1 0 68.608H218.112zM645.12 755.2H446.976c-21.504 0-38.912-17.408-38.912-38.912v-75.776c0-21.504 17.408-38.912 38.912-38.912H645.12c21.504 0 38.912 17.408 38.912 38.912V716.288c-0.512 21.504-17.92 38.912-38.912 38.912z m-44.544-81.408H491.52c-7.168 0-12.8 5.632-12.8 12.8s5.632 12.8 12.8 12.8h109.056c7.168 0 12.8-5.632 12.8-12.8s-5.632-12.8-12.8-12.8zM225.792 529.92h441.344M225.792 430.08h441.344M225.792 330.752h441.344M712.192 652.288H297.984c-57.856 0-113.152-23.04-154.112-64-41.472-41.472-64.512-95.744-64.512-154.112S102.4 321.024 143.36 280.064c41.472-41.472 96.256-64 154.112-64H711.68c32.256 0 58.368 26.112 58.368 58.88V593.92c0.512 32.256-25.6 58.368-57.856 58.368z m-44.544-334.848H225.792c-7.168 0-12.8 5.632-12.8 12.8s5.632 12.8 12.8 12.8h441.344c7.168 0 12.8-5.632 12.8-12.8s-5.12-12.8-12.288-12.8z m0 99.84H225.792c-7.168 0-12.8 5.632-12.8 12.8s5.632 12.8 12.8 12.8h441.344c7.168 0 12.8-5.632 12.8-12.8s-5.12-12.8-12.288-12.8z m0 99.84H225.792c-7.168 0-12.8 5.632-12.8 12.8s5.632 12.8 12.8 12.8h441.344c7.168 0 12.8-5.632 12.8-12.8s-5.12-12.8-12.288-12.8z"  horiz-adv-x="1024" />

    
    <glyph glyph-name="shichang" unicode="&#58936;" d="M202.019501 141.726457h139.629798V396.557383c0 16.078145-12.692797 29.682729-27.931376 29.68273h-83.776073c-15.247606 0-27.931376-13.604584-27.931377-29.68273v-254.830926zM24.302283 141.726457h139.638826V544.93492c0 14.841365-12.68377 28.445949-27.931376 28.445949h-83.776073a28.075818 28.075818 0 0 1-27.931377-28.445949v-403.208463zM419.286608 283.956202c0 85.32882 38.773517 161.846707 100.106992 213.809539V718.084175c0 16.078145-12.701825 29.691757-27.922349 29.691757h-83.821211c-15.229551 0-27.922349-13.604584-27.922349-29.691757v-576.357718h78.828952a276.24438 276.24438 0 0 0-39.270035 142.229745zM732.688566 540.014881c-147.429639 0-266.93693-116.257357-266.936931-259.669717S585.267954 20.675447 732.688566 20.675447s266.93693 116.257357 266.93693 259.669717c0 143.41236-119.516318 259.669717-266.93693 259.669717z m106.336031-302.180657c10.896306 0.514573 20.14959-7.646372 20.691245-18.244768s-7.863034-19.607934-18.75934-20.122507q-0.965953-0.045138-1.931905 0h-75.254025v-41.680402c-2.211761-15.076082-16.556608-25.557119-32.056987-23.408552a27.985542 27.985542 0 0 0-24.058538 23.408552v41.689429h-75.317218c-10.896306-0.514573-20.14959 7.646372-20.691245 18.244768s7.863034 19.607934 18.75934 20.122507q0.965953 0.045138 1.931905 0h75.344301v27.570273h-75.344301c-10.896306-0.514573-20.14959 7.646372-20.691245 18.244767s7.863034 19.607934 18.75934 20.122508q0.965953 0.045138 1.931905 0h75.344301v21.666226l-75.831791 70.812448a20.916936 20.916936 0 0 0-1.173587 30.134109q0.71318 0.74929 1.507608 1.435387a25.936278 25.936278 0 0 0 34.530548-0.324993l68.997902-64.348691 69.052067 64.375774a26.180023 26.180023 0 0 0 34.530547 0.324993 21.007211 21.007211 0 0 0 1.670105-30.24244q-0.640959-0.695125-1.336084-1.327056l-75.83179-70.631897v-21.783584h75.254024c10.896306 0.514573 20.14959-7.646372 20.691246-18.244768s-7.863034-19.607934-18.75934-20.122507q-0.965953-0.045138-1.931906 0h-75.281107v-27.570273z"  horiz-adv-x="1024" />

    
    <glyph glyph-name="bangzhu" unicode="&#58931;" d="M512-43.52c-236.032 0-427.52 192-427.52 427.52S275.968 811.52 512 811.52 939.52 619.52 939.52 384s-191.488-427.52-427.52-427.52z m0 790.528c-200.192 0-363.008-162.816-363.008-363.008 0-200.192 162.816-363.008 363.008-363.008 200.192 0 363.008 162.816 363.008 363.008 0 200.192-162.816 363.008-363.008 363.008zM524.8 252.416v1.536h-13.312c-15.872 0-29.184-5.12-38.912-15.36-10.752-10.24-16.384-23.04-16.384-38.912 0-14.848 5.632-28.672 15.872-38.912s24.064-15.872 38.912-15.872h1.024c14.336 0 27.648 5.12 38.4 15.36 10.752 10.752 16.384 24.064 16.384 39.424 0 15.872-5.632 28.672-15.872 38.912-6.656 7.168-15.872 11.776-26.112 13.824zM616.96 567.808c-25.088 22.528-58.368 33.792-98.816 33.792-46.08 0-83.456-13.824-110.08-40.96-26.624-26.624-39.936-63.488-39.936-108.544v-13.312h87.04v13.312c0 22.528 4.608 39.424 13.312 51.2 8.704 12.8 24.064 18.944 45.568 18.944 17.408 0 30.72-4.608 39.424-13.312 8.704-9.216 13.312-22.016 13.312-38.4 0-11.264-4.096-22.528-13.312-33.792l-9.216-10.24c-37.376-32.256-58.88-56.32-67.584-73.728-8.704-16.384-12.8-36.352-12.8-60.928v-23.04h88.064V291.84c0 12.288 2.56 22.528 7.68 32.256 4.608 9.216 11.776 18.432 20.992 26.112 37.376 32.768 46.592 41.984 50.176 46.592 16.384 20.992 24.576 47.616 24.576 78.336 0.512 38.912-12.288 70.144-38.4 92.672z"  horiz-adv-x="1024" />

    
    <glyph glyph-name="shuju" unicode="&#58965;" d="M254.656 536.512H121.216c-31.552 0-57.216-25.6-57.216-57.216v-476.544c0-31.552 25.6-57.216 57.216-57.216h133.44c31.488 0 57.152 25.6 57.152 57.216V479.296c0 31.552-25.6 57.216-57.152 57.216zM235.52 21.76H140.16V460.224h95.36v-438.4zM902.784 345.856h-133.44c-31.488 0-57.152-25.6-57.152-57.152v-285.952c0-31.552 25.6-57.216 57.152-57.216h133.44c31.552 0 57.216 25.6 57.216 57.216V288.64c0 31.488-25.6 57.152-57.216 57.152z m-19.008-324.096h-95.36V269.632h95.36v-247.872zM578.752 822.464H445.248c-31.488 0-57.152-25.6-57.152-57.216v-762.496c0-31.552 25.6-57.216 57.152-57.216h133.504c31.488 0 57.152 25.6 57.152 57.216V765.248c0 31.552-25.6 57.216-57.152 57.216z m-19.072-800.64h-95.36V746.24h95.36v-724.48z"  horiz-adv-x="1024" />

    
    <glyph glyph-name="APPkaifa" unicode="&#58911;" d="M448 64a64 64 0 1 1 128 0 64 64 0 1 1-128 0zM790.4 864H233.6C182.72 864 144 817.664 144 763.072v-758.144C144-49.664 182.72-96 233.6-96h556.8c50.88 0 89.6 46.336 89.6 100.928V763.072C880 817.664 841.28 864 790.4 864zM233.6 800h556.8c12.736 0 25.6-15.392 25.6-36.928V736H208v27.072C208 784.608 220.864 800 233.6 800z m556.8-832H233.6c-12.736 0-25.6 15.392-25.6 36.928V672h608v-667.072C816-16.608 803.136-32 790.4-32zM704 336H320a32 32 0 1 1 0-64h384a32 32 0 1 1 0 64zM320 464h256.576a32 32 0 1 1 0 64H320a32 32 0 0 1 0-64z"  horiz-adv-x="1024" />

    
    <glyph glyph-name="hezi" unicode="&#58959;" d="M197.68 780.252L65.466 534.81c-1.899-3.467-0.413-6.522-0.545-9.288-1.8-4.623-0.81-9.584-0.81-14.835V-7c0-22.785 14.398-34.243 37.181-34.243h811.862c22.785 0 47.004 11.458 47.004 34.243v517.69c0 11.672-7.742 22.172-15.55 29.684L809.916 779.328c-9.694 17.385-28.779 28.232-48.708 28.298L246.6 809.244c-20.323 0-39.294-11.111-48.92-28.992z m728.665-787.253c0-4.127-9.063-0.43-13.191-0.43H101.292c-4.128 0-3.368-3.697-3.368 0.43V509.77L911.32 516.5c1.585-0.198 4.441-2.146 6.308-3.088 1.287-0.643 4.903-1.172 6.19-1.733 0.05-0.33 2.526-0.627 2.526-0.99v-517.69z m-147.37 769.1l117.586-211.605H537.495V774.522l222.89-1.081c7.71-0.041 14.825-4.606 18.59-11.343z m-275.293 12.523v-224.127H113.147l114.318 212.983c3.715 6.917 10.914 11.574 18.855 11.574l257.362-0.43z m169.066-410.1c0-9.344-7.562-16.906-16.906-16.906H351.524c-9.345 0-16.907 7.563-16.907 16.906s7.562 16.906 16.907 16.906H655.84c9.345 0 16.907-7.56 16.907-16.906z"  horiz-adv-x="1024" />

    
    <glyph glyph-name="rizhi" unicode="&#58895;" d="M881.984 525.806933H141.994667c-47.149227 0-85.37856-38.229333-85.37856-85.37856v-113.848746c0-47.148373 38.229333-85.378133 85.37856-85.378134h739.989333c47.159893 0 85.399893 38.229333 85.399893 85.378134v113.848746c0 47.149227-38.240427 85.37856-85.399893 85.37856zM173.474133 456.55552h677.038934c25.951573 0 47.181653-21.23008 47.181653-47.181227v-51.739733c0-25.951573-21.23008-47.181653-47.181653-47.181653H173.474133c-25.951573 0-47.181653 21.23008-47.181653 47.181653v51.739733c0 25.951147 21.23008 47.181227 47.181653 47.181227z m708.509867-269.252267H141.994667c-47.149227 0-85.37856-38.229333-85.37856-85.37856v-113.84832c0-47.149227 38.229333-85.37856 85.37856-85.37856h739.989333c47.159893 0 85.399893 38.229333 85.399893 85.37856v113.84832c0 47.149227-38.240427 85.37856-85.399893 85.37856zM173.474133 118.05184h677.038934c25.951573 0 47.181653-21.23008 47.181653-47.181227v-51.739733c0-25.951573-21.23008-47.181653-47.181653-47.181653H173.474133c-25.951573 0-47.181653 21.23008-47.181653 47.181653v51.739733c0 25.951147 21.23008 47.181227 47.181653 47.181227zM881.984 865.30304H141.994667c-47.149227 0-85.37856-38.229333-85.37856-85.378133v-113.848747c0-47.148373 38.229333-85.378133 85.37856-85.378133h739.989333c47.159893 0 85.399893 38.229333 85.399893 85.378133V779.924907c0 47.149227-38.240427 85.378133-85.399893 85.378133zM173.474133 796.052053h677.038934c25.951573 0 47.181653-21.23008 47.181653-47.181226v-51.739734c0-25.951573-21.23008-47.181653-47.181653-47.181653H173.474133c-25.951573 0-47.181653 21.23008-47.181653 47.181653V748.870827c0 25.951147 21.23008 47.181227 47.181653 47.181226z"  horiz-adv-x="1024" />

    
    <glyph glyph-name="xitong" unicode="&#59445;" d="M512 474.88a16 16 0 0 1-16-16v-128a16 16 0 0 1 32 0v128A16 16 0 0 1 512 474.88zM480 502.4h64a16 16 0 0 1 0 32h-16V640a16 16 0 0 1-32 0v-105.6H480a16 16 0 0 1 0-32zM704 448a16 16 0 0 1-16-16v-102.4a16 16 0 1 1 32 0V431.36A16 16 0 0 1 704 448zM672 476.16h64a16 16 0 0 1 0 32h-14.72V640a16 16 0 0 1-32 0v-128h-17.28a16 16 0 0 1 0-32zM288 442.88h64a16 16 0 0 1 0 32h-16V640a16 16 0 0 1-32 0v-165.12H288a16 16 0 0 1 0-32zM320 410.24a16 16 0 0 1-16-16v-64a16 16 0 0 1 32 0v64A16 16 0 0 1 320 410.24zM936.96 823.04H87.04a32 32 0 0 1-32-32v-614.4a32 32 0 0 1 32-32h849.92a32 32 0 0 1 32 32v614.4a32 32 0 0 1-32 32z m-32-614.4H119.04v550.4h785.92zM352 16h320a32 32 0 0 1 0 64h-320a32 32 0 0 1 0-64z"  horiz-adv-x="1024" />

    
    <glyph glyph-name="dianbozhibov1213" unicode="&#58898;" d="M438.171875 162.515625L438.171875 162.515625 438.171875 310.171875 290.515625 310.171875C211.4140625 310.171875 142.859375 241.6171875 142.859375 162.515625 142.859375 83.4140625 211.4140625 14.859375 290.515625 14.859375 369.6171875 14.859375 438.171875 83.4140625 438.171875 162.515625L438.171875 162.515625 438.171875 162.515625zM490.90625 162.515625c0-110.7421875-89.6484375-200.390625-200.390625-200.390625S90.125 51.7734375 90.125 162.515625c0 110.7421875 89.6484375 200.390625 200.390625 200.390625l131.8359375 0 68.5546875 0 0-68.5546875L490.90625 162.515625 490.90625 162.515625zM585.828125 162.515625L585.828125 310.171875l147.65625 0c79.1015625 0 147.65625-63.28125 147.65625-147.65625 0-79.1015625-63.28125-147.65625-147.65625-147.65625C654.3828125 14.859375 585.828125 83.4140625 585.828125 162.515625L585.828125 162.515625zM533.09375 162.515625c0-110.7421875 89.6484375-200.390625 200.390625-200.390625 110.7421875 0 200.390625 89.6484375 200.390625 200.390625 0 110.7421875-89.6484375 200.390625-200.390625 200.390625L601.6484375 362.90625 533.09375 362.90625l0-68.5546875L533.09375 162.515625 533.09375 162.515625zM438.171875 605.484375l0-147.65625L290.515625 457.828125C206.140625 457.828125 142.859375 526.3828125 142.859375 605.484375 142.859375 689.859375 206.140625 753.140625 290.515625 753.140625 369.6171875 753.140625 438.171875 689.859375 438.171875 605.484375L438.171875 605.484375zM490.90625 605.484375C490.90625 716.2265625 401.2578125 805.875 290.515625 805.875S90.125 716.2265625 90.125 605.484375s89.6484375-200.390625 200.390625-200.390625l131.8359375 0 68.5546875 0L490.90625 473.6484375 490.90625 605.484375 490.90625 605.484375zM585.828125 605.484375l0-147.65625 147.65625 0c79.1015625 0 147.65625 63.28125 147.65625 147.65625C881.140625 689.859375 817.859375 753.140625 733.484375 753.140625 654.3828125 753.140625 585.828125 689.859375 585.828125 605.484375L585.828125 605.484375zM533.09375 605.484375L533.09375 605.484375c0 110.7421875 89.6484375 200.390625 200.390625 200.390625C844.2265625 805.875 933.875 716.2265625 933.875 605.484375s-89.6484375-200.390625-200.390625-200.390625L601.6484375 405.09375 533.09375 405.09375 533.09375 473.6484375 533.09375 605.484375 533.09375 605.484375zM533.09375 605.484375"  horiz-adv-x="1024" />

    
    <glyph glyph-name="shebeiguanli1" unicode="&#60343;" d="M800 160H448a32 32 0 0 1 0-64h352a32 32 0 0 1 0 64zM800 416H448a32 32 0 0 1 0-64h352a32 32 0 0 1 0 64zM800 672H448a32 32 0 0 1 0-64h352a32 32 0 0 1 0 64zM304 160h-64a32 32 0 0 1 0-64h64a32 32 0 0 1 0 64zM304 416h-64a32 32 0 0 1 0-64h64a32 32 0 0 1 0 64zM304 672h-64a32 32 0 0 1 0-64h64a32 32 0 0 1 0 64zM864 800H160a96 96 0 0 1-96-96v-640a96 96 0 0 1 96-96h704a96 96 0 0 1 96 96V704a96 96 0 0 1-96 96z m32-736a32 32 0 0 0-32-32H160a32 32 0 0 0-32 32v160h672a32 32 0 0 1 0 64H128v192h672a32 32 0 0 1 0 64H128V704a32 32 0 0 0 32 32h704a32 32 0 0 0 32-32v-640z"  horiz-adv-x="1024" />

    
    <glyph glyph-name="banbenguanli" unicode="&#58909;" d="M909.824-65.024c-124.416 0-231.424 44.032-318.464 131.072-88.064 88.064-131.072 192.512-131.072 318.464s43.008 230.4 131.072 318.464c68.096 71.68 157.696 115.712 259.072 127.488 44.032 3.584 64 3.584 113.664 0 6.656 0 64.512-8.704 113.152-26.112 17.92-6.656 27.136-26.624 20.48-44.544-6.656-17.92-26.624-27.136-44.544-20.48-40.448 14.848-88.064 21.504-94.208 22.016-46.592 3.584-62.976 3.072-102.4 0-83.968-9.728-159.232-46.592-216.576-107.008-75.264-75.264-111.616-163.328-111.616-270.336 0-106.496 36.352-195.072 111.104-269.824s162.816-111.104 269.824-111.104c103.424 0 192 36.352 270.336 111.616 73.728 77.312 110.592 165.376 110.592 269.312 0 41.472-7.168 84.992-21.504 128.512-3.072 6.144-5.12 11.776-7.68 17.408s-4.608 11.264-6.656 14.336c-1.024 1.024-1.536 2.56-2.048 3.584 0 0-17.408 28.672-62.976 29.184h-0.512c-40.96 0-53.248-19.456-57.856-26.624 0-0.512-0.512-1.024-1.024-1.024l-157.696-332.8c-15.872-34.304-37.376-52.736-62.976-53.248-25.6 0-49.152 16.896-68.096 51.712l-156.672 337.408c-8.192 17.408-0.512 37.888 16.896 46.08 17.408 8.192 37.888 0.512 46.08-16.896l155.648-335.36c1.024-2.048 2.56-4.096 3.584-6.144 1.024 2.048 2.048 4.096 3.072 5.632l159.232 335.872c1.024 2.048 2.56 4.608 4.096 6.144 32.256 48.64 82.944 57.856 117.248 58.368 70.144-1.024 110.08-41.984 122.88-65.536 5.632-8.704 8.704-17.408 12.288-25.6 2.048-4.608 3.584-9.728 6.144-14.336 0.512-1.536 1.536-3.072 2.048-4.608 17.408-51.712 26.112-102.912 26.112-152.576 0-120.32-44.032-227.328-130.56-317.952-91.648-87.04-198.656-130.56-319.488-130.56z"  horiz-adv-x="1820" />

    
    <glyph glyph-name="dian" unicode="&#58889;" d="M512 576a192.06400001 192.06400001 0 0 0 0-384 192 192 0 0 0 0 384z"  horiz-adv-x="1024" />

    
    <glyph glyph-name="yonghu-copy" unicode="&#58998;" d="M905.01333333-9.346133330000043s0-87.42186667-87.42186666-87.42186667H205.6384c-87.42186667 0-87.42186667 87.42186667-87.42186667 87.42186667S71.73973333 325.84746667 365.16266667 409.15093333c-43.98613333 47.97226667-72.10133333 116.50666667-72.10133334 193.456 0 144.8448 97.85173333 262.2656 218.55466667 262.2656s218.55466667-117.4208 218.55466667-262.2656c0-76.94826667-28.11093333-145.48266667-72.10133334-193.456 293.42186667-83.30346667 246.944-418.49706667 246.944-418.49706666zM511.616 777.45066667s-131.1328 0-131.1328-174.84373334S511.616 427.7632 511.616 427.7632s131.1328 0 131.1328 174.84373333S511.616 777.45066667 511.616 777.45066667z m0-437.10933334c-349.68746667 0-305.97653333-349.68746667-305.97653333-349.68746666h611.95306666c-0.00106667 0 43.70986667 349.68746667-305.97653333 349.68746666z"  horiz-adv-x="1024" />

    
    <glyph glyph-name="025caozuo_guanli_shezhi-copy" unicode="&#58999;" d="M968.60375 484.0471875l-104.91375 34.993125c-2.071875 5.38125-4.3125 10.72875-6.718125 16.07625l49.5 98.9296875c6.5840625 13.168125 4.010625 29.0775-6.418125 39.50625L803.2634375 770.34375c-10.42875 10.460625-26.3034375 13.00125-39.50625 6.4171875l-98.9625-49.4653125a362.19375 362.19375 0 0 1-16.0434375 6.684375L613.758125 838.89375c-4.64625 13.96875-17.7140625 23.394375-32.4534375 23.394375H444.40625c-14.7384375 0-27.8071875-9.425625-32.4534375-23.39625l-34.993125-104.911875a347.716875 347.716875 0 0 1-16.0425-6.684375L261.95375 776.761875c-13.168125 6.616875-29.0775 4.0434375-39.50625-6.4171875L125.65625 673.5525c-10.4278125-10.42875-13.00125-26.338125-6.4171875-39.50625l49.4653125-98.9634375a345.830625 345.830625 0 0 1-6.684375-16.0425L57.10625 484.0471875C43.1375 479.4 33.7109375 466.33125 33.7109375 451.59375v-136.8984375c0-14.739375 9.425625-27.8071875 23.39625-32.4534375l104.91375-34.993125a328.74375 328.74375 0 0 1 6.718125-16.0771875l-49.5-98.9296875c-6.585-13.1671875-4.0125-29.0765625 6.41625-39.5053125l96.79125-96.7903125c10.460625-10.460625 26.37-13.035 39.5053125-6.4171875l98.9634375 49.464375a362.19375 362.19375 0 0 1 16.0434375-6.684375l34.9921875-104.9128125c4.64625-13.970625 17.715-23.39625 32.4534375-23.39625h136.8984375c14.739375 0 27.808125 9.425625 32.48625 23.39625l34.9265625 104.8790625a408.2915625 408.2915625 0 0 1 16.07625 6.718125l98.964375-49.464375c13.1353125-6.585 29.04375-4.0434375 39.5053125 6.4171875l96.7903125 96.7903125c10.42875 10.42875 13.003125 26.338125 6.4171875 39.50625l-49.464375 98.9625a362.19375 362.19375 0 0 1 6.684375 16.0434375l104.91375 34.993125c13.9696875 4.64625 23.3953125 17.7140625 23.3953125 32.4534375V451.59375c0.001875 14.7384375-9.42375 27.8071875-23.394375 32.4534375z m-45.0525-144.68625l-97.1934375-32.41875c-10.1934375-3.376875-18.215625-11.3971875-21.624375-21.590625-4.3453125-13.003125-9.860625-26.236875-16.4109375-39.3721875a34.22625 34.22625 0 0 1 0.0346875-30.549375l45.855-91.74375-61.8984375-61.8984375-91.74375 45.855c-9.5915625 4.8121875-20.9559375 4.8121875-30.549375 0.0346875-13.134375-6.5503125-26.40375-12.065625-39.37125-16.4109375a34.2609375 34.2609375 0 0 1-21.658125-21.624375l-32.3521875-97.1934375H469.071875l-32.41875 97.1934375c-3.376875 10.1934375-11.3971875 18.215625-21.590625 21.624375-13.0021875 4.3453125-26.236875 9.860625-39.3721875 16.4109375-9.6253125 4.779375-20.990625 4.779375-30.549375-0.0346875l-91.74375-45.855-61.8984375 61.8984375 45.8878125 91.74375a34.269375 34.269375 0 0 1 0 30.6159375c-6.5175 13.0340625-12.0309375 26.270625-16.41 39.3046875-3.40875 10.194375-11.4309375 18.215625-21.6253125 21.590625l-97.190625 32.41875V426.928125l97.1925 32.41875c10.1934375 3.376875 18.215625 11.3971875 21.6253125 21.590625 4.378125 13.06875 9.8925 26.270625 16.37625 39.2390625a34.2290625 34.2290625 0 0 1 0.03375 30.6478125l-45.8878125 91.7784375 61.8984375 61.8984375 91.7784375-45.8878125a34.12125 34.12125 0 0 1 30.6478125 0.03375c12.9675 6.48375 26.1703125 12 39.2390625 16.37625 10.1934375 3.40875 18.215625 11.4309375 21.590625 21.6253125l32.416875 97.190625h87.5671875l32.41875-97.1925c3.376875-10.1934375 11.3971875-18.215625 21.590625-21.624375 13.003125-4.3453125 26.236875-9.860625 39.3721875-16.4109375 9.5915625-4.745625 20.9559375-4.745625 30.549375 0.03375l91.74375 45.8559375 61.8984375-61.8984375-45.8878125-91.74375a34.269375 34.269375 0 0 1 0-30.6159375c6.5184375-13.035 12.031875-26.270625 16.4109375-39.305625 3.40875-10.1934375 11.4309375-18.215625 21.624375-21.590625l97.1925-32.41875v-87.5671875zM512.8559375 554.2678125c-94.4859375 0-171.12375-76.6378125-171.12375-171.12375 0-94.5178125 76.6378125-171.121875 171.12375-171.121875 94.5178125 0 171.121875 76.6040625 171.121875 171.121875 0 94.4859375-76.6040625 171.12375-171.121875 171.12375z m0-273.796875c-56.6184375 0-102.675 46.055625-102.675 102.673125s46.0565625 102.675 102.675 102.675S615.528125 439.7625 615.528125 383.14312500000005 569.4734375 280.47187499999995 512.8559375 280.47187499999995z"  horiz-adv-x="1024" />

    
    <glyph glyph-name="025caozuo_guanli_shezhi" unicode="&#58926;" d="M968.60375 484.0471875l-104.91375 34.993125c-2.071875 5.38125-4.3125 10.72875-6.718125 16.07625l49.5 98.9296875c6.5840625 13.168125 4.010625 29.0775-6.418125 39.50625L803.2634375 770.34375c-10.42875 10.460625-26.3034375 13.00125-39.50625 6.4171875l-98.9625-49.4653125a362.19375 362.19375 0 0 1-16.0434375 6.684375L613.758125 838.89375c-4.64625 13.96875-17.7140625 23.394375-32.4534375 23.394375H444.40625c-14.7384375 0-27.8071875-9.425625-32.4534375-23.39625l-34.993125-104.911875a347.716875 347.716875 0 0 1-16.0425-6.684375L261.95375 776.761875c-13.168125 6.616875-29.0775 4.0434375-39.50625-6.4171875L125.65625 673.5525c-10.4278125-10.42875-13.00125-26.338125-6.4171875-39.50625l49.4653125-98.9634375a345.830625 345.830625 0 0 1-6.684375-16.0425L57.10625 484.0471875C43.1375 479.4 33.7109375 466.33125 33.7109375 451.59375v-136.8984375c0-14.739375 9.425625-27.8071875 23.39625-32.4534375l104.91375-34.993125a328.74375 328.74375 0 0 1 6.718125-16.0771875l-49.5-98.9296875c-6.585-13.1671875-4.0125-29.0765625 6.41625-39.5053125l96.79125-96.7903125c10.460625-10.460625 26.37-13.035 39.5053125-6.4171875l98.9634375 49.464375a362.19375 362.19375 0 0 1 16.0434375-6.684375l34.9921875-104.9128125c4.64625-13.970625 17.715-23.39625 32.4534375-23.39625h136.8984375c14.739375 0 27.808125 9.425625 32.48625 23.39625l34.9265625 104.8790625a408.2915625 408.2915625 0 0 1 16.07625 6.718125l98.964375-49.464375c13.1353125-6.585 29.04375-4.0434375 39.5053125 6.4171875l96.7903125 96.7903125c10.42875 10.42875 13.003125 26.338125 6.4171875 39.50625l-49.464375 98.9625a362.19375 362.19375 0 0 1 6.684375 16.0434375l104.91375 34.993125c13.9696875 4.64625 23.3953125 17.7140625 23.3953125 32.4534375V451.59375c0.001875 14.7384375-9.42375 27.8071875-23.394375 32.4534375z m-45.0525-144.68625l-97.1934375-32.41875c-10.1934375-3.376875-18.215625-11.3971875-21.624375-21.590625-4.3453125-13.003125-9.860625-26.236875-16.4109375-39.3721875a34.22625 34.22625 0 0 1 0.0346875-30.549375l45.855-91.74375-61.8984375-61.8984375-91.74375 45.855c-9.5915625 4.8121875-20.9559375 4.8121875-30.549375 0.0346875-13.134375-6.5503125-26.40375-12.065625-39.37125-16.4109375a34.2609375 34.2609375 0 0 1-21.658125-21.624375l-32.3521875-97.1934375H469.071875l-32.41875 97.1934375c-3.376875 10.1934375-11.3971875 18.215625-21.590625 21.624375-13.0021875 4.3453125-26.236875 9.860625-39.3721875 16.4109375-9.6253125 4.779375-20.990625 4.779375-30.549375-0.0346875l-91.74375-45.855-61.8984375 61.8984375 45.8878125 91.74375a34.269375 34.269375 0 0 1 0 30.6159375c-6.5175 13.0340625-12.0309375 26.270625-16.41 39.3046875-3.40875 10.194375-11.4309375 18.215625-21.6253125 21.590625l-97.190625 32.41875V426.928125l97.1925 32.41875c10.1934375 3.376875 18.215625 11.3971875 21.6253125 21.590625 4.378125 13.06875 9.8925 26.270625 16.37625 39.2390625a34.2290625 34.2290625 0 0 1 0.03375 30.6478125l-45.8878125 91.7784375 61.8984375 61.8984375 91.7784375-45.8878125a34.12125 34.12125 0 0 1 30.6478125 0.03375c12.9675 6.48375 26.1703125 12 39.2390625 16.37625 10.1934375 3.40875 18.215625 11.4309375 21.590625 21.6253125l32.416875 97.190625h87.5671875l32.41875-97.1925c3.376875-10.1934375 11.3971875-18.215625 21.590625-21.624375 13.003125-4.3453125 26.236875-9.860625 39.3721875-16.4109375 9.5915625-4.745625 20.9559375-4.745625 30.549375 0.03375l91.74375 45.8559375 61.8984375-61.8984375-45.8878125-91.74375a34.269375 34.269375 0 0 1 0-30.6159375c6.5184375-13.035 12.031875-26.270625 16.4109375-39.305625 3.40875-10.1934375 11.4309375-18.215625 21.624375-21.590625l97.1925-32.41875v-87.5671875zM512.8559375 554.2678125c-94.4859375 0-171.12375-76.6378125-171.12375-171.12375 0-94.5178125 76.6378125-171.121875 171.12375-171.121875 94.5178125 0 171.121875 76.6040625 171.121875 171.121875 0 94.4859375-76.6040625 171.12375-171.121875 171.12375z m0-273.796875c-56.6184375 0-102.675 46.055625-102.675 102.673125s46.0565625 102.675 102.675 102.675S615.528125 439.7625 615.528125 383.14312500000005 569.4734375 280.47187499999995 512.8559375 280.47187499999995z"  horiz-adv-x="1024" />

    
    <glyph glyph-name="yonghu" unicode="&#58906;" d="M931.21422222-35.56920889000003s0-93.24999111-93.24999111-93.24999111H185.21429333c-93.24999111 0-93.24999111 93.24999111-93.24999111 93.24999111S42.38904889 321.97063111 355.37351111 410.82766222c-46.91854222 51.17041778-76.90808889 124.27377778-76.90808889 206.35306667 0 154.50112 104.37518222 279.74997333 233.12497778 279.74997333s233.12497778-125.24885333 233.12497778-279.74997333c0-82.07815111-29.98499555-155.18151111-76.90808889-206.35306667 312.98332445-88.85703111 263.40693333-446.39687111 263.40693333-446.39687111zM511.5904 803.68071111s-139.87498667 0-139.87498667-186.49998222S511.5904 430.68074667 511.5904 430.68074667s139.87498667 0 139.87498667 186.49998222S511.5904 803.68071111 511.5904 803.68071111z m0-466.24995556c-372.99996445 0-326.37496889-372.99996445-326.37496889-372.99996444h652.74993778c-0.00113778 0 46.62385778 372.99996445-326.37496889 372.99996444z"  horiz-adv-x="1024" />

    
    <glyph glyph-name="shujufenxi" unicode="&#58884;" d="M1312.9449281-17.852372919999993H249.22315195v808.43964173c0 21.47472604-17.59364528 38.88533292-39.29415622 38.88533293s-39.28648363-17.41060688-39.28648362-38.88533293v-842.55829378c0-17.71092195 11.96657262-32.6466686 28.33155626-37.32895486a39.39718364 39.39718364 0 0 1 21.4330767-6.32415483h1092.53778303c21.70818226 0 39.30073285 17.42704791 39.30073163 38.90286987s-17.59364528 38.86889187-39.30073163 38.86889187zM344.53266161 226.39920802999995h120.43295492c13.56569593 0 25.32182881 8.63022467 31.26785063 21.30703155L570.72587541 366.58720130999995 686.84810165 98.11969698999997c6.15536443-14.20139998 18.73133568-22.44581786 31.81039041-22.44581785 0.76942055 0 1.55637806 0.03288086 2.34114374 0.10083562 0.08329868 0 0.16769449-0.01863285 0.23455212-0.01863285 14.71763434 0 28.46527397 10.4869178 33.482948 27.11166308l115.98522201 438.90293328 91.78573847-201.30980022c4.2997672-14.81737406 15.52322469-24.85272334 28.26689043-27.06014936 4.09590412-1.87203706 8.5622699-2.92752467 13.26428494-2.92752467h136.07126449c14.2660658-24.08330277 42.61515901-40.48884107 75.24319595-40.48884107 46.99822611 0 85.09660274 33.98493435 85.09660274 75.9490466 0 41.92794245-38.09837541 75.94575766-85.09660274 75.94575765-28.29648357 0-53.35087818-12.34361093-68.82149323-31.32484388h-124.11565215L888.86813734 695.06183866c-2.54391091 13.27963007-10.97246432 24.76942465-23.16372468 29.47911224-18.49897537 7.14070547-38.6036507-4.03123829-44.90698083-24.96232743l-106.48802889-464.18201805-104.56338219 223.14293294a40.38800421 40.38800421 0 0 1-3.60597399 6.59926038c-2.42334652 4.48171091-5.66872322 8.49541226-9.6900959 11.72434793-15.93862463 12.78531508-38.02494111 8.5359657-49.32292882-9.50048086L446.3110041 306.47703962h-101.78820688c-19.53473422 0-35.37252201-17.92903426-35.372522-40.03946436s15.83778899-40.03836723 35.38238639-40.03836723z"  horiz-adv-x="1536" />

    
    <glyph glyph-name="tuanduiguanli" unicode="&#58890;" d="M635.35786667 435.0976c46.94471111 36.77297778 77.27786667 93.74151111 77.27786666 157.74151111 0 110.62613333-90.27128889 200.62435555-201.27288888 200.62435556s-201.27288889-90.0096-201.2728889-200.62435556c0-64 30.32177778-120.96853333 77.2664889-157.74151111-123.73333333-49.28853333-211.44462222-169.74506667-211.44462223-310.40853333v-66.85582222c0-18.48888889 15.00728889-33.45066667 33.53031111-33.45066667h603.81866667c18.5344 0 33.54168889 14.9504 33.54168889 33.45066667v66.85582222c0 140.72035555-87.71128889 261.12-211.44462222 310.40853333M365.75004445 593.1007999999999c0 80.05404445 65.29706667 145.13493333 145.6128 145.13493333 80.30435555 0 145.60142222-65.08088889 145.60142222-145.13493333 0-80.03128889-65.29706667-145.13493333-145.60142222-145.13493333-80.31573333 0-145.6128 65.06951111-145.6128 145.13493333m430.60337777-513.8432h-570.02666667v35.51004445c0 156.66062222 127.86346667 284.11448889 285.05884445 284.11448888 157.13848889 0 284.96782222-127.46524445 284.96782222-284.11448888v-35.51004445M251.38062222 404.10453333l6.5536 1.57013334c14.06293333 4.68764445 24.08675555 16.9984 24.08675556 31.45955555 0 13.96053333-9.36391111 25.89582222-22.65315556 30.93617778-35.91964445 16.27022222-59.0848 51.96231111-59.0848 91.29528889 0 44.56675555 38.6048 82.1248 78.99591111 95.14097778a200.05888 200.05888 0 0 0 31.40266667 59.71057778c2.37795555 3.92533333 4.86968889 7.77102222 7.48657778 11.54844444-2.71928889 0.13653333-5.29066667 0.80782222-8.0896 0.80782222-92.4672 0-167.74257778-75.00231111-167.74257778-167.20782222 0-42.32533333 16.1792-81.99964445 43.63377778-112.17351111-87.32444445-45.09013333-144.27022222-135.29315555-144.27022223-237.31768889v-51.712c0-18.48888889 15.00728889-33.43928889 33.5416889-33.43928889h60.09742222c0 22.91484445 2.3552 37.59217778 6.7584 59.20995555h-42.46186667v25.95271112c0.01137778 92.39893333 62.33884445 171.71342222 151.74542222 194.21866666m584.97706667 43.06488889c27.46595555 30.17386667 43.63377778 69.84817778 43.63377778 112.17351111 0 92.20551111-75.24124445 167.23057778-167.7312 167.23057778-2.79893333 0-5.38168889-0.68266667-8.0896-0.80782222 2.61688889-3.77742222 5.10862222-7.62311111 7.48657778-11.54844444 13.63057778-17.80622222 24.32568889-37.94488889 31.36853333-59.71057778 40.40248889-13.01617778 84.5824-50.56284445 84.5824-95.14097778 0-39.33297778-23.19928889-75.0592-59.0848-91.29528889-13.27786667-5.02897778-22.65315555-16.97564445-22.65315556-30.9248 0-14.46115555 10.04657778-26.77191111 24.08675556-31.44817778l6.5536-1.58151111c89.44071111-22.528 151.73404445-101.81973333 151.73404444-194.26417778v-25.95271111H880.18488889c4.43733333-21.6064 6.7584-36.29511111 6.7584-59.20995555h60.1088c18.55715555 0 33.53031111 14.9504 33.53031111 33.43928888v51.712c0.05688889 102.04728889-56.88888889 192.23893333-144.22471111 237.32906667"  horiz-adv-x="1024" />

    
    <glyph glyph-name="shebeiguanli" unicode="&#58887;" d="M0 896h1024v-1024H0zM800 160c17.7 0 32-14.3 32-32s-14.3-32-32-32H448c-17.7 0-32 14.3-32 32s14.3 32 32 32h352z m0 256c17.7 0 32-14.3 32-32s-14.3-32-32-32H448c-17.7 0-32 14.3-32 32s14.3 32 32 32h352z m0 256c17.7 0 32-14.3 32-32s-14.3-32-32-32H448c-17.7 0-32 14.3-32 32s14.3 32 32 32h352zM304 160c17.7 0 32-14.3 32-32s-14.3-32-32-32h-64c-17.7 0-32 14.3-32 32s14.3 32 32 32h64z m0 256c17.7 0 32-14.3 32-32s-14.3-32-32-32h-64c-17.7 0-32 14.3-32 32s14.3 32 32 32h64z m0 256c17.7 0 32-14.3 32-32s-14.3-32-32-32h-64c-17.7 0-32 14.3-32 32s14.3 32 32 32h64zM864 800c53 0 96-43 96-96v-640c0-53-43-96-96-96H160c-53 0-96 43-96 96V704c0 53 43 96 96 96h704z m32-736V704c0 17.7-14.3 32-32 32H160c-17.7 0-32-14.3-32-32v-160h672c17.7 0 32-14.3 32-32s-14.3-32-32-32H128v-192h672c17.7 0 32-14.3 32-32s-14.3-32-32-32H128v-160c0-17.7 14.3-32 32-32h704c17.7 0 32 14.3 32 32z"  horiz-adv-x="1024" />

    
    <glyph glyph-name="houtaiguanli" unicode="&#58907;" d="M894.6688 811.1104H129.3312a107.52 107.52 0 0 1-107.52-107.52v-515.4304a107.52 107.52 0 0 1 107.52-107.52h267.264v-74.5984h-48.128a32.1536 32.1536 0 0 1 0-64.2048h327.0656a32.1536 32.1536 0 0 1 0 64.2048h-48.128v74.5472h267.264a107.52 107.52 0 0 1 107.52 107.52V703.5904a107.52 107.52 0 0 1-107.52 107.52zM563.2 5.9904H460.8v74.5984h102.4z m374.8352 182.1696a43.4176 43.4176 0 0 0-43.3664-43.3664H129.3312a43.4176 43.4176 0 0 0-43.3664 43.3664V703.5904a43.3664 43.3664 0 0 0 43.3664 43.3152h765.3376a43.3664 43.3664 0 0 0 43.3664-43.3152zM813.5168 420.9664h-51.8656a22.8864 22.8864 0 0 0-20.224 12.1856c-3.072 5.8368-6.4 11.52-9.984 17.152a22.8352 22.8352 0 0 0-0.512 23.6544l14.1824 24.7296a56.8832 56.8832 0 0 1-21.0432 77.6704l-90.4192 51.712a56.7808 56.7808 0 0 1-77.5168-21.0432l-14.2336-24.832a22.8864 22.8864 0 0 0-20.48-11.4688c-6.6048 0.256-13.2096 0-19.8144 0a22.8352 22.8352 0 0 0-20.736 11.3152l-14.592 24.6784a56.7808 56.7808 0 0 1-77.6192 20.48L298.496 574.976a56.8832 56.8832 0 0 1-20.48-77.6704l14.2336-24.5248a22.8864 22.8864 0 0 0-0.512-23.808c-3.4816-5.5296-6.7584-11.2128-9.728-16.9984a22.9376 22.9376 0 0 0-20.48-12.4928L209.92 419.2768a33.4848 33.4848 0 0 1-33.4336-33.6384v-118.3232a23.296 23.296 0 0 1 23.1936-23.296h624.64a23.296 23.296 0 0 1 23.296 23.296v43.7248l-0.3072 76.4928a33.536 33.536 0 0 1-33.792 33.4336zM424.96 298.6496a87.04 87.04 0 0 0 174.08 0z m256 0a22.8864 22.8864 0 0 0-22.5792 20.1216 147.5072 147.5072 0 0 1-293.632-20.1216H244.5824a10.6496 10.6496 0 0 0-10.6496 10.6496v47.3088a10.5984 10.5984 0 0 0 10.24 10.6496h0.3072c41.8816-0.6656 77.4144 23.3984 86.4256 39.7312C335.4624 414.72 337.92 418.0992 343.04 426.8544a81.92 81.92 0 0 1-0.6144 72.2432l-6.5536 11.4176a23.2448 23.2448 0 0 0 8.4992 31.744l39.4752 22.9376a23.3472 23.3472 0 0 0 31.8464-8.448l10.6496-18.3808A60.9792 60.9792 0 0 1 486.4 508.8768a210.5856 210.5856 0 0 0 49.8176 0 61.0816 61.0816 0 0 1 60.416 29.7984l10.5472 18.3808a23.296 23.296 0 0 0 31.7952 8.6016l39.5264-22.6304a23.3472 23.3472 0 0 0 8.6016-31.8464L678.8096 496.64a65.5872 65.5872 0 0 1-0.7168-64.0512c16.4352-30.3616 8.0896-17.7664 20.48-36.5056 13.2096-19.6608 37.376-27.3408 61.0816-27.2384l33.3824-0.7168v-67.584z"  horiz-adv-x="1024" />

    
    <glyph glyph-name="ziyuanguanli" unicode="&#58888;" d="M947.2 586.667v6.4a42.667 42.667 0 0 1-21.333 36.266L533.333 855.467a42.667 42.667 0 0 1-42.666 0L93.867 627.2A34.133 34.133 0 0 1 76.8 597.333a34.133 34.133 0 0 1 17.067-29.866L492.8 352a42.667 42.667 0 0 1 38.4 0l392.533 196.267a42.667 42.667 0 0 1 23.467 38.4z m-452.267-140.8L224 586.667a10.667 10.667 0 0 0 0 19.2l266.667 153.6a42.667 42.667 0 0 0 42.666 0l277.334-160a10.667 10.667 0 0 0 0-19.2l-277.334-134.4a42.667 42.667 0 0 0-38.4 0zM947.2 356.267a42.667 42.667 0 0 1-61.867 38.4l-352-168.534a42.667 42.667 0 0 0-38.4 0l-356.266 185.6a42.667 42.667 0 0 1-61.867-38.4 42.667 42.667 0 0 1 23.467-38.4l394.666-204.8a42.667 42.667 0 0 1 38.4-2.133l390.4 189.867a42.667 42.667 0 0 1 23.467 38.4zM533.333-91.733l390.4 189.866a42.667 42.667 0 0 1 23.467 38.4 42.667 42.667 0 0 1-61.867 38.4l-352-168.533a42.667 42.667 0 0 0-38.4 0L138.667 192A42.667 42.667 0 0 1 76.8 153.6a42.667 42.667 0 0 1 23.467-38.4l394.666-204.8a42.667 42.667 0 0 1 38.4-2.133z"  horiz-adv-x="1024" />

    
    <glyph glyph-name="jifenguanli" unicode="&#58905;" d="M424.15263289 518.15947378c114.23652978 0 233.07514311 25.165824 304.43656533 73.05079467V504.00369778h66.11854223V694.96103822c0 114.819072-190.840832 176.80156445-370.43859912 176.80156445S53.71403378 809.83836445 53.71403378 694.96103822v-521.20052622c0-114.76081778 190.840832-176.80156445 370.49685333-176.80156445V63.01923554999996c-188.68542578 0-304.49481955 64.54567822-304.49481956 110.79953067v156.70385778c71.36142222-47.76846222 190.08352711-73.05079467 304.43656534-73.05079467v66.11854222c-188.62717155 0-304.43656533 64.54567822-304.43656534 110.79953067V591.09376c71.36142222-47.76846222 190.20003555-72.93428622 304.43656534-72.93428622z m0 287.60109511c188.62717155 0 304.43656533-64.54567822 304.43656533-110.79953067 0-46.19559822-115.80939378-110.79953067-304.43656533-110.79953067S119.71606755 648.76544 119.71606755 694.96103822c0 46.25385245 115.92590222 110.79953067 304.43656534 110.79953067z m296.16446578-323.77696711c-164.04388978 0-249.79410489-63.08932267-249.79410489-125.42134045v-334.96177778c0-62.27376355 85.86672355-125.36308622 249.79410489-125.36308622 162.87880533 0 248.512512 62.21550933 249.91061333 124.08149334h0.05825422v336.24337066c-0.11650845 62.33201778-85.86672355 125.42134045-249.91061333 125.42134045z m0-66.00203378c121.28529067 0 183.85032533-41.65176889 183.85032533-59.41930667 0-17.70928355-62.56503467-59.41930667-183.85032533-59.41930666s-183.79207111 41.71002311-183.79207112 59.41930666c0 17.76753778 62.50678045 59.41930667 183.79207112 59.41930667z m0-453.80039111c-121.28529067 0-183.79207111 41.71002311-183.79207112 59.41930666v79.98304712c41.88478578-22.71914667 103.40124445-37.92349867 183.79207112-37.92349867s141.84903111 15.14609778 183.85032533 37.92349867v-79.92479289c0-17.76753778-62.56503467-59.41930667-183.85032533-59.41930667z m0 167.59739733c-121.28529067 0-183.79207111 41.65176889-183.79207112 59.41930667v79.92479289c41.88478578-22.71914667 103.40124445-37.98175289 183.79207112-37.98175289s141.84903111 15.204352 183.85032533 37.98175289v-79.92479289c0-17.76753778-62.56503467-59.41930667-183.85032533-59.41930667z"  horiz-adv-x="1024" />

    
    <glyph glyph-name="tuisongguanli" unicode="&#58990;" d="M182.15822222 699.96088889v-110.81955556H61.09866667v-52.33777778h173.39733333v86.35733334l335.98577778-238.13688889 339.968 238.36444445v-503.12533334H279.66577778v-52.33777778h683.23555555V699.96088889H182.15822222z m108.31644445-52.33777778h563.31377778L570.70933333 449.08088889 290.47466667 647.62311111zM133.91644445 443.27822222h218.45333333v-52.33777777h-218.45333333z m72.93155555-145.408h218.45333333v-52.33777777h-218.45333333z"  horiz-adv-x="1024" />

    
    <glyph glyph-name="tuisongguanli-copy" unicode="&#58991;" d="M182.15822222 699.96088889v-110.81955556H61.09866667v-52.33777778h173.39733333v86.35733334l335.98577778-238.13688889 339.968 238.36444445v-503.12533334H279.66577778v-52.33777778h683.23555555V699.96088889H182.15822222z m108.31644445-52.33777778h563.31377778L570.70933333 449.08088889 290.47466667 647.62311111zM133.91644445 443.27822222h218.45333333v-52.33777777h-218.45333333z m72.93155555-145.408h218.45333333v-52.33777777h-218.45333333z"  horiz-adv-x="1024" />

    
    <glyph glyph-name="jifenguanli-copy" unicode="&#58992;" d="M424.15263289 518.15947378c114.23652978 0 233.07514311 25.165824 304.43656533 73.05079467V504.00369778h66.11854223V694.96103822c0 114.819072-190.840832 176.80156445-370.43859912 176.80156445S53.71403378 809.83836445 53.71403378 694.96103822v-521.20052622c0-114.76081778 190.840832-176.80156445 370.49685333-176.80156445V63.01923554999996c-188.68542578 0-304.49481955 64.54567822-304.49481956 110.79953067v156.70385778c71.36142222-47.76846222 190.08352711-73.05079467 304.43656534-73.05079467v66.11854222c-188.62717155 0-304.43656533 64.54567822-304.43656534 110.79953067V591.09376c71.36142222-47.76846222 190.20003555-72.93428622 304.43656534-72.93428622z m0 287.60109511c188.62717155 0 304.43656533-64.54567822 304.43656533-110.79953067 0-46.19559822-115.80939378-110.79953067-304.43656533-110.79953067S119.71606755 648.76544 119.71606755 694.96103822c0 46.25385245 115.92590222 110.79953067 304.43656534 110.79953067z m296.16446578-323.77696711c-164.04388978 0-249.79410489-63.08932267-249.79410489-125.42134045v-334.96177778c0-62.27376355 85.86672355-125.36308622 249.79410489-125.36308622 162.87880533 0 248.512512 62.21550933 249.91061333 124.08149334h0.05825422v336.24337066c-0.11650845 62.33201778-85.86672355 125.42134045-249.91061333 125.42134045z m0-66.00203378c121.28529067 0 183.85032533-41.65176889 183.85032533-59.41930667 0-17.70928355-62.56503467-59.41930667-183.85032533-59.41930666s-183.79207111 41.71002311-183.79207112 59.41930666c0 17.76753778 62.50678045 59.41930667 183.79207112 59.41930667z m0-453.80039111c-121.28529067 0-183.79207111 41.71002311-183.79207112 59.41930666v79.98304712c41.88478578-22.71914667 103.40124445-37.92349867 183.79207112-37.92349867s141.84903111 15.14609778 183.85032533 37.92349867v-79.92479289c0-17.76753778-62.56503467-59.41930667-183.85032533-59.41930667z m0 167.59739733c-121.28529067 0-183.79207111 41.65176889-183.79207112 59.41930667v79.92479289c41.88478578-22.71914667 103.40124445-37.98175289 183.79207112-37.98175289s141.84903111 15.204352 183.85032533 37.98175289v-79.92479289c0-17.76753778-62.56503467-59.41930667-183.85032533-59.41930667z"  horiz-adv-x="1024" />

    
    <glyph glyph-name="ziyuanguanli-copy" unicode="&#58993;" d="M947.2 586.6669999999999v6.4a42.667 42.667 0 0 1-21.333 36.266L533.333 855.467a42.667 42.667 0 0 1-42.666 0L93.867 627.2A34.133 34.133 0 0 1 76.8 597.3330000000001a34.133 34.133 0 0 1 17.067-29.866L492.8 352a42.667 42.667 0 0 1 38.4 0l392.533 196.267a42.667 42.667 0 0 1 23.467 38.4z m-452.267-140.8L224 586.6669999999999a10.667 10.667 0 0 0 0 19.2l266.667 153.6a42.667 42.667 0 0 0 42.666 0l277.334-160a10.667 10.667 0 0 0 0-19.2l-277.334-134.4a42.667 42.667 0 0 0-38.4 0zM947.2 356.26700000000005a42.667 42.667 0 0 1-61.867 38.4l-352-168.534a42.667 42.667 0 0 0-38.4 0l-356.266 185.6a42.667 42.667 0 0 1-61.867-38.4 42.667 42.667 0 0 1 23.467-38.4l394.666-204.8a42.667 42.667 0 0 1 38.4-2.133l390.4 189.867a42.667 42.667 0 0 1 23.467 38.4zM533.333-91.73299999999995l390.4 189.866a42.667 42.667 0 0 1 23.467 38.4 42.667 42.667 0 0 1-61.867 38.4l-352-168.533a42.667 42.667 0 0 0-38.4 0L138.667 192A42.667 42.667 0 0 1 76.8 153.60000000000002a42.667 42.667 0 0 1 23.467-38.4l394.666-204.8a42.667 42.667 0 0 1 38.4-2.133z"  horiz-adv-x="1024" />

    
    <glyph glyph-name="houtaiguanli-copy" unicode="&#58994;" d="M894.6688 811.1104H129.3312a107.52 107.52 0 0 1-107.52-107.52v-515.4304a107.52 107.52 0 0 1 107.52-107.52h267.264v-74.5984h-48.128a32.1536 32.1536 0 0 1 0-64.2048h327.0656a32.1536 32.1536 0 0 1 0 64.2048h-48.128v74.5472h267.264a107.52 107.52 0 0 1 107.52 107.52V703.5904a107.52 107.52 0 0 1-107.52 107.52zM563.2 5.990400000000022H460.8v74.5984h102.4z m374.8352 182.1696a43.4176 43.4176 0 0 0-43.3664-43.3664H129.3312a43.4176 43.4176 0 0 0-43.3664 43.3664V703.5904a43.3664 43.3664 0 0 0 43.3664 43.3152h765.3376a43.3664 43.3664 0 0 0 43.3664-43.3152zM813.5168 420.9664h-51.8656a22.8864 22.8864 0 0 0-20.224 12.1856c-3.072 5.8368-6.4 11.52-9.984 17.152a22.8352 22.8352 0 0 0-0.512 23.6544l14.1824 24.7296a56.8832 56.8832 0 0 1-21.0432 77.6704l-90.4192 51.712a56.7808 56.7808 0 0 1-77.5168-21.0432l-14.2336-24.832a22.8864 22.8864 0 0 0-20.48-11.4688c-6.6048 0.256-13.2096 0-19.8144 0a22.8352 22.8352 0 0 0-20.736 11.3152l-14.592 24.6784a56.7808 56.7808 0 0 1-77.6192 20.48L298.496 574.976a56.8832 56.8832 0 0 1-20.48-77.6704l14.2336-24.5248a22.8864 22.8864 0 0 0-0.512-23.808c-3.4816-5.5296-6.7584-11.2128-9.728-16.9984a22.9376 22.9376 0 0 0-20.48-12.4928L209.92 419.2768a33.4848 33.4848 0 0 1-33.4336-33.6384v-118.3232a23.296 23.296 0 0 1 23.1936-23.296h624.64a23.296 23.296 0 0 1 23.296 23.296v43.7248l-0.3072 76.4928a33.536 33.536 0 0 1-33.792 33.4336zM424.96 298.64959999999996a87.04 87.04 0 0 0 174.08 0z m256 0a22.8864 22.8864 0 0 0-22.5792 20.1216 147.5072 147.5072 0 0 1-293.632-20.1216H244.5824a10.6496 10.6496 0 0 0-10.6496 10.6496v47.3088a10.5984 10.5984 0 0 0 10.24 10.6496h0.3072c41.8816-0.6656 77.4144 23.3984 86.4256 39.7312C335.4624 414.72 337.92 418.0992 343.04 426.8544a81.92 81.92 0 0 1-0.6144 72.2432l-6.5536 11.4176a23.2448 23.2448 0 0 0 8.4992 31.744l39.4752 22.9376a23.3472 23.3472 0 0 0 31.8464-8.448l10.6496-18.3808A60.9792 60.9792 0 0 1 486.4 508.8768a210.5856 210.5856 0 0 0 49.8176 0 61.0816 61.0816 0 0 1 60.416 29.7984l10.5472 18.3808a23.296 23.296 0 0 0 31.7952 8.6016l39.5264-22.6304a23.3472 23.3472 0 0 0 8.6016-31.8464L678.8096 496.64a65.5872 65.5872 0 0 1-0.7168-64.0512c16.4352-30.3616 8.0896-17.7664 20.48-36.5056 13.2096-19.6608 37.376-27.3408 61.0816-27.2384l33.3824-0.7168v-67.584z"  horiz-adv-x="1024" />

    
    <glyph glyph-name="shebeiguanli-copy" unicode="&#58995;" d="M0 896h1024v-1024H0zM800 160c17.7 0 32-14.3 32-32s-14.3-32-32-32H448c-17.7 0-32 14.3-32 32s14.3 32 32 32h352z m0 256c17.7 0 32-14.3 32-32s-14.3-32-32-32H448c-17.7 0-32 14.3-32 32s14.3 32 32 32h352z m0 256c17.7 0 32-14.3 32-32s-14.3-32-32-32H448c-17.7 0-32 14.3-32 32s14.3 32 32 32h352zM304 160c17.7 0 32-14.3 32-32s-14.3-32-32-32h-64c-17.7 0-32 14.3-32 32s14.3 32 32 32h64z m0 256c17.7 0 32-14.3 32-32s-14.3-32-32-32h-64c-17.7 0-32 14.3-32 32s14.3 32 32 32h64z m0 256c17.7 0 32-14.3 32-32s-14.3-32-32-32h-64c-17.7 0-32 14.3-32 32s14.3 32 32 32h64zM864 800c53 0 96-43 96-96v-640c0-53-43-96-96-96H160c-53 0-96 43-96 96V704c0 53 43 96 96 96h704z m32-736V704c0 17.7-14.3 32-32 32H160c-17.7 0-32-14.3-32-32v-160h672c17.7 0 32-14.3 32-32s-14.3-32-32-32H128v-192h672c17.7 0 32-14.3 32-32s-14.3-32-32-32H128v-160c0-17.7 14.3-32 32-32h704c17.7 0 32 14.3 32 32z"  horiz-adv-x="1024" />

    
    <glyph glyph-name="tuanduiguanli-copy" unicode="&#58996;" d="M635.35786667 435.0976c46.94471111 36.77297778 77.27786667 93.74151111 77.27786666 157.74151111 0 110.62613333-90.27128889 200.62435555-201.27288888 200.62435556s-201.27288889-90.0096-201.2728889-200.62435556c0-64 30.32177778-120.96853333 77.2664889-157.74151111-123.73333333-49.28853333-211.44462222-169.74506667-211.44462223-310.40853333v-66.85582222c0-18.48888889 15.00728889-33.45066667 33.53031111-33.45066667h603.81866667c18.5344 0 33.54168889 14.9504 33.54168889 33.45066667v66.85582222c0 140.72035555-87.71128889 261.12-211.44462222 310.40853333M365.75004445 593.1007999999999c0 80.05404445 65.29706667 145.13493333 145.6128 145.13493333 80.30435555 0 145.60142222-65.08088889 145.60142222-145.13493333 0-80.03128889-65.29706667-145.13493333-145.60142222-145.13493333-80.31573333 0-145.6128 65.06951111-145.6128 145.13493333m430.60337777-513.8432h-570.02666667v35.51004445c0 156.66062222 127.86346667 284.11448889 285.05884445 284.11448888 157.13848889 0 284.96782222-127.46524445 284.96782222-284.11448888v-35.51004445M251.38062222 404.10453333l6.5536 1.57013334c14.06293333 4.68764445 24.08675555 16.9984 24.08675556 31.45955555 0 13.96053333-9.36391111 25.89582222-22.65315556 30.93617778-35.91964445 16.27022222-59.0848 51.96231111-59.0848 91.29528889 0 44.56675555 38.6048 82.1248 78.99591111 95.14097778a200.05888 200.05888 0 0 0 31.40266667 59.71057778c2.37795555 3.92533333 4.86968889 7.77102222 7.48657778 11.54844444-2.71928889 0.13653333-5.29066667 0.80782222-8.0896 0.80782222-92.4672 0-167.74257778-75.00231111-167.74257778-167.20782222 0-42.32533333 16.1792-81.99964445 43.63377778-112.17351111-87.32444445-45.09013333-144.27022222-135.29315555-144.27022223-237.31768889v-51.712c0-18.48888889 15.00728889-33.43928889 33.5416889-33.43928889h60.09742222c0 22.91484445 2.3552 37.59217778 6.7584 59.20995555h-42.46186667v25.95271112c0.01137778 92.39893333 62.33884445 171.71342222 151.74542222 194.21866666m584.97706667 43.06488889c27.46595555 30.17386667 43.63377778 69.84817778 43.63377778 112.17351111 0 92.20551111-75.24124445 167.23057778-167.7312 167.23057778-2.79893333 0-5.38168889-0.68266667-8.0896-0.80782222 2.61688889-3.77742222 5.10862222-7.62311111 7.48657778-11.54844444 13.63057778-17.80622222 24.32568889-37.94488889 31.36853333-59.71057778 40.40248889-13.01617778 84.5824-50.56284445 84.5824-95.14097778 0-39.33297778-23.19928889-75.0592-59.0848-91.29528889-13.27786667-5.02897778-22.65315555-16.97564445-22.65315556-30.9248 0-14.46115555 10.04657778-26.77191111 24.08675556-31.44817778l6.5536-1.58151111c89.44071111-22.528 151.73404445-101.81973333 151.73404444-194.26417778v-25.95271111H880.18488889c4.43733333-21.6064 6.7584-36.29511111 6.7584-59.20995555h60.1088c18.55715555 0 33.53031111 14.9504 33.53031111 33.43928888v51.712c0.05688889 102.04728889-56.88888889 192.23893333-144.22471111 237.32906667"  horiz-adv-x="1024" />

    
    <glyph glyph-name="shujufenxi-copy" unicode="&#58997;" d="M1312.9449281-17.852372919999993H249.22315195v808.43964173c0 21.47472604-17.59364528 38.88533292-39.29415622 38.88533293s-39.28648363-17.41060688-39.28648362-38.88533293v-842.55829378c0-17.71092195 11.96657262-32.6466686 28.33155626-37.32895486a39.39718364 39.39718364 0 0 1 21.4330767-6.32415483h1092.53778303c21.70818226 0 39.30073285 17.42704791 39.30073163 38.90286987s-17.59364528 38.86889187-39.30073163 38.86889187zM344.53266161 226.39920802999995h120.43295492c13.56569593 0 25.32182881 8.63022467 31.26785063 21.30703155L570.72587541 366.58720130999995 686.84810165 98.11969698999997c6.15536443-14.20139998 18.73133568-22.44581786 31.81039041-22.44581785 0.76942055 0 1.55637806 0.03288086 2.34114374 0.10083562 0.08329868 0 0.16769449-0.01863285 0.23455212-0.01863285 14.71763434 0 28.46527397 10.4869178 33.482948 27.11166308l115.98522201 438.90293328 91.78573847-201.30980022c4.2997672-14.81737406 15.52322469-24.85272334 28.26689043-27.06014936 4.09590412-1.87203706 8.5622699-2.92752467 13.26428494-2.92752467h136.07126449c14.2660658-24.08330277 42.61515901-40.48884107 75.24319595-40.48884107 46.99822611 0 85.09660274 33.98493435 85.09660274 75.9490466 0 41.92794245-38.09837541 75.94575766-85.09660274 75.94575765-28.29648357 0-53.35087818-12.34361093-68.82149323-31.32484388h-124.11565215L888.86813734 695.06183866c-2.54391091 13.27963007-10.97246432 24.76942465-23.16372468 29.47911224-18.49897537 7.14070547-38.6036507-4.03123829-44.90698083-24.96232743l-106.48802889-464.18201805-104.56338219 223.14293294a40.38800421 40.38800421 0 0 1-3.60597399 6.59926038c-2.42334652 4.48171091-5.66872322 8.49541226-9.6900959 11.72434793-15.93862463 12.78531508-38.02494111 8.5359657-49.32292882-9.50048086L446.3110041 306.47703962h-101.78820688c-19.53473422 0-35.37252201-17.92903426-35.372522-40.03946436s15.83778899-40.03836723 35.38238639-40.03836723z"  horiz-adv-x="1536" />

    


  </font>
</defs>
</svg>
